<svg xmlns:inkscape="http://www.inkscape.org/namespaces/inkscape" xmlns:sodipodi="http://sodipodi.sourceforge.net/DTD/sodipodi-0.dtd" xmlns="http://www.w3.org/2000/svg" xmlns:svg="http://www.w3.org/2000/svg" version="1.1" id="svg1" xml:space="preserve" inkscape:export-filename=".svg" inkscape:export-xdpi="161.2393" inkscape:export-ydpi="161.2393" viewBox="-0.12 -0.18 33.08 117.43"><sodipodi:namedview id="namedview1" pagecolor="#ffffff" bordercolor="#000000" borderopacity="0.25" inkscape:showpageshadow="2" inkscape:pageopacity="0.0" inkscape:pagecheckerboard="0" inkscape:deskcolor="#d1d1d1" inkscape:document-units="mm" inkscape:zoom="2.1089995" inkscape:cx="543.14853" inkscape:cy="640.35102" inkscape:window-width="1920" inkscape:window-height="1051" inkscape:window-x="-9" inkscape:window-y="-9" inkscape:window-maximized="1" inkscape:current-layer="svg1"/><defs id="defs1"><inkscape:path-effect effect="bend_path" id="path-effect17" is_visible="true" lpeversion="1" bendpath="m 50.646208,108.63626 5.378962,-0.0663" prop_scale="1.0157509" scale_y_rel="false" vertical="false" hide_knot="false" bendpath-nodetypes="cc"/><inkscape:path-effect effect="bend_path" id="path-effect13" is_visible="true" lpeversion="1" bendpath="m 50.646208,108.63626 5.378962,-0.0663" prop_scale="1.0157509" scale_y_rel="false" vertical="false" hide_knot="false" bendpath-nodetypes="cc"/><inkscape:path-effect effect="bend_path" id="path-effect12" is_visible="true" lpeversion="1" bendpath="m 54.778224,115.67743 c 4.455986,4.34479 5.730413,4.24095 9.71371,-0.13307" prop_scale="0.48524863" scale_y_rel="false" vertical="false" hide_knot="false" bendpath-nodetypes="cc"/></defs><g inkscape:label="Brush" inkscape:groupmode="layer" id="layer1" transform="matrix(0.5911471,0,0,0.5911471,-17.999653,-17.930828)"><path style="fill:#011627;fill-opacity:1;stroke:#011627;stroke-width:0.600001;stroke-linecap:round;stroke-linejoin:round;stroke-dasharray:none;stroke-opacity:1" d="m 50.351275,52.822538 c -1.025588,3.459428 -6.125916,10.274936 -4.652417,11.638956 1.455582,1.347434 4.123248,-4.888373 5.362093,-1.791259 0.464725,1.161809 -0.779277,5.97294 0.294725,6.509939 2.026145,1.013073 3.043466,-6.80156 3.888003,-7.646099 0.268383,-0.26838 0.35106,6.568792 2.054622,6.043021 2.21589,0.176376 3.22648,-6.544116 4.22186,-6.855323 1.452982,-0.454276 0.754031,5.944826 0.754031,9.004033 0,0.474935 -0.142168,3.397697 0.709679,3.459676 4.061976,0.295543 0.365107,-4.978008 2.395159,-7.008064 0.9744,-0.974399 1.642456,3.636214 3.903228,2.129033 1.063429,-0.708953 0.29973,-4.778636 1.378151,-5.625453 1.221779,-0.959388 0.432432,5.118406 3.517946,5.206963 3.163631,0.0908 3.076559,-4.712905 4.595839,-3.573445 0.783412,0.587561 4.831192,11.43485 4.925614,2.401465 0.01011,-0.966964 -1.181993,-5.577015 -1.465938,-6.570822 C 81.780263,58.557532 81.469611,57.534297 80.662153,55.919383 77.587769,49.77061 73.279446,43.650415 68.306452,38.677418 67.066053,37.43702 65.05937,36.368477 63.25,35.217742 62.082777,34.475404 61.665209,34.22935 60.511684,33.638035 c -1.516996,-0.777636 -3.506723,-1.571258 -4.964207,-2.154251 -0.542306,-0.216924 -2.944071,-0.71716 -3.319001,-0.342231 -0.363808,0.363807 0.774225,2.021117 0.90862,2.390703 1.05248,2.894319 0.662478,9.270909 -0.229384,12.243783 z" id="path7" sodipodi:nodetypes="csssscssssssssssssssssscc"/><path style="fill:#ffffff;fill-opacity:0;stroke:#011627;stroke-width:0.9;stroke-linecap:round;stroke-linejoin:round;stroke-dasharray:none;stroke-opacity:1" d="M 83.930442,94.863909 C 86.10383,81.912297 84.882329,70.69148 83.043345,62.839717 80.198743,50.694346 71.677417,39.653225 63.161291,34.774195 56.164015,30.765339 51.629033,30.782258 51.629033,30.782258" id="path2" sodipodi:nodetypes="cssc"/><path style="fill:#ffffff;fill-opacity:0;stroke:#011627;stroke-width:0.9;stroke-linecap:round;stroke-linejoin:round;stroke-dasharray:none;stroke-opacity:1" d="m 51.362904,31.048385 c 0,0 4.956533,6.486312 -0.08871,19.072582 -2.50376,6.246081 -3.228829,8.263662 -8.249999,15.258064 -3.450965,4.807132 -7.008067,8.338711 -9.403227,15.967744 C 31.223008,88.984719 33,94.387095 33,94.387095 c 0,0 26.080645,2.838712 50.741934,0.532259" id="path1" sodipodi:nodetypes="cssscc"/><path style="fill:#7d451b;fill-opacity:1;stroke:#011627;stroke-width:0.600001;stroke-linecap:round;stroke-linejoin:round;stroke-dasharray:none;stroke-opacity:1" d="m 32.822581,94.564516 -1.366469,-0.06811 c 0,0 -1.059457,7.687204 -0.585146,15.769724 0.62097,10.58167 2.217743,15.71053 4.967743,20.9444 2.75,5.23387 6.653226,9.21689 6.653226,9.21689 0,0 7.373667,75.57972 8.083343,79.57165 0.709679,3.99194 1.674723,6.92028 2.650527,7.36383 0.975807,0.44355 2.68858,0.77241 4.551482,0.77241 1.862905,0 5.280413,0.40802 5.82755,-1.70164 3.324166,-12.81733 5.344105,-39.72116 5.344105,-39.72116 l 4.147831,-46.3738 c 0,0 8.507213,-7.9293 10.281406,-17.33253 1.774195,-9.40322 2.315369,-26.667473 2.315369,-27.554571 0,-0.887095 -1.596774,-0.532257 -1.596774,-0.532257 v 0 c 0,0 -12.685485,1.685483 -51.274193,-0.354838 z" id="path8" sodipodi:nodetypes="ccsscssssccsscccc"/><path style="fill:#011627;fill-opacity:1;stroke:#011627;stroke-width:0.600001;stroke-linecap:round;stroke-linejoin:round;stroke-dasharray:none;stroke-opacity:1" d="m 49.05268,204.36526 c 9.001357,4.64182 17.657712,0.72136 17.657712,0.72136 0,0 -3.073634,21.54681 -3.575451,21.95453 -0.435443,0.35379 -0.470454,1.06636 -5.708177,0.90954 -4.211821,-0.1261 -1.285908,0.0314 -4.516358,-1.16045 -1.394195,-0.51436 -2.101363,-5.55136 -2.791362,-11.00863 -0.689999,-5.45726 -1.066364,-11.41635 -1.066364,-11.41635 z" id="path9" sodipodi:nodetypes="ccssssc"/><path id="path10" style="fill:#ffffff;stroke:#ffffff;stroke-width:0.502736;stroke-linecap:round;stroke-linejoin:round" d="m 55.930733,109.9131 c -0.117918,0.40956 -1.221594,-2.19726 -2.686011,-2.17921 -1.464419,0.0181 -2.6794,2.64647 -2.68494,2.19777 -0.0055,-0.44872 1.183611,-2.69406 2.648042,-2.71211 1.464431,-0.0181 2.847146,2.26204 2.722909,2.69355 z" inkscape:path-effect="#path-effect13" inkscape:original-d="m 55.976276,109.01143 c -0.120092,0.40175 -1.166595,-2.17785 -2.597007,-2.17785 -1.430413,0 -2.648641,2.57273 -2.64865,2.13095 -9e-6,-0.44179 1.188381,-2.63772 2.618806,-2.63772 1.430425,0 2.753379,2.26134 2.626851,2.68462 z" sodipodi:nodetypes="sssss" transform="matrix(1.4058783,0,0,1.4058783,-23.359483,-43.884915)"/><path id="rect10" style="fill:#ffffff;fill-opacity:1;stroke:#ffffff;stroke-width:0.600001;stroke-linecap:round;stroke-linejoin:round;stroke-opacity:1" d="m 56.51836,116.17035 c 0.504532,0.45698 1.016796,0.87944 1.559367,1.23353 0.604937,0.36944 1.194529,0.68195 1.716517,0.63736 l 0,0 c 0.505861,0.022 1.062814,-0.30504 1.62533,-0.69348 0.429813,-0.31605 0.834904,-0.68161 1.231164,-1.07568 0.643306,-0.63974 1.423967,-0.97342 1.774227,-0.65421 0.343846,0.31337 0.279407,0.98799 -0.592556,1.84777 -0.43623,0.43014 -0.901369,0.84696 -1.411311,1.22946 -0.675532,0.53184 -1.554264,0.96927 -2.590666,1.02456 l -1e-6,0 c -1.055048,-0.0106 -1.964714,-0.41537 -2.67674,-0.91416 -0.636727,-0.42337 -1.216333,-0.89721 -1.761395,-1.38768 -0.738193,-0.66426 -1.003036,-1.48399 -0.685234,-1.80979 0.324576,-0.33275 1.130638,-0.0542 1.811298,0.56232 z" inkscape:path-effect="#path-effect12" inkscape:original-d="m 53.891128,113.99194 h 8.604839 c 0.95833,0 1.729838,0.77151 1.729838,1.72984 0,0.95833 -0.552771,1.72984 -1.729838,1.72984 h -8.604839 c -0.958331,0 -1.729839,-0.77151 -1.729839,-1.72984 0,-0.95833 0.771508,-1.72984 1.729839,-1.72984 z" sodipodi:nodetypes="sssssss" transform="translate(-1.7298387,-1.1975806)"/><path id="path15" style="fill:#ffffff;stroke:#ffffff;stroke-width:0.502736;stroke-linecap:round;stroke-linejoin:round" d="m 55.930733,109.9131 c -0.117918,0.40956 -1.221594,-2.19726 -2.686011,-2.17921 -1.464419,0.0181 -2.6794,2.64647 -2.68494,2.19777 -0.0055,-0.44872 1.183611,-2.69406 2.648042,-2.71211 1.464431,-0.0181 2.847146,2.26204 2.722909,2.69355 z" inkscape:path-effect="#path-effect17" inkscape:original-d="m 55.976276,109.01143 c -0.120092,0.40175 -1.166595,-2.17785 -2.597007,-2.17785 -1.430413,0 -2.648641,2.57273 -2.64865,2.13095 -9e-6,-0.44179 1.188381,-2.63772 2.618806,-2.63772 1.430425,0 2.753379,2.26134 2.626851,2.68462 z" sodipodi:nodetypes="sssss" transform="matrix(1.4058783,0,0,1.4058783,-11.166813,-43.978704)"/></g></svg>