<svg xmlns:inkscape="http://www.inkscape.org/namespaces/inkscape" xmlns:sodipodi="http://sodipodi.sourceforge.net/DTD/sodipodi-0.dtd" xmlns="http://www.w3.org/2000/svg" xmlns:svg="http://www.w3.org/2000/svg" version="1.1" id="svg1" xml:space="preserve" inkscape:export-filename="brush.svg" inkscape:export-xdpi="161.2393" inkscape:export-ydpi="161.2393" viewBox="75.33 85.35 82.6 100.81"><sodipodi:namedview id="namedview1" pagecolor="#ffffff" bordercolor="#000000" borderopacity="0.25" inkscape:showpageshadow="2" inkscape:pageopacity="0.0" inkscape:pagecheckerboard="0" inkscape:deskcolor="#d1d1d1" inkscape:document-units="mm" inkscape:zoom="2.1089995" inkscape:cx="543.14853" inkscape:cy="640.35102" inkscape:window-width="1920" inkscape:window-height="1051" inkscape:window-x="-9" inkscape:window-y="-9" inkscape:window-maximized="1" inkscape:current-layer="svg1"/><defs id="defs1"/><g inkscape:label="Brush" inkscape:groupmode="layer" id="layer1" transform="matrix(0.5911471,0,0,0.5911471,-17.999653,-17.930828)"><ellipse style="fill:#011627;fill-opacity:0;stroke:#011627;stroke-width:0.8988;stroke-linecap:round;stroke-linejoin:round;stroke-dasharray:none;stroke-opacity:1" id="path17" cx="228.08952" cy="188.59065" rx="38.470272" ry="13.109746"/></g><g inkscape:groupmode="layer" id="layer2" inkscape:label="Ink" transform="translate(-30.448687,-30.332261)"><path style="display:inline;fill:#011627;fill-opacity:0;stroke:#011627;stroke-width:0.600001;stroke-linecap:round;stroke-linejoin:round;stroke-dasharray:none;stroke-opacity:1" d="m 124.54839,124.17137 c -1.24194,8.18347 0.51007,15.96774 0.51007,15.96774 0,0 11.7118,5.98456 23.24194,5.56653 10.16341,-0.36848 20.08617,-4.27059 20.58354,-5.93339 0.39133,-1.30827 0.86155,-3.69132 1.02711,-7.32621 0.1658,-3.6398 0.12325,-8.36338 0.12325,-8.36338" id="path18" sodipodi:nodetypes="ccsssc"/><rect style="fill:#011627;fill-opacity:1;stroke:#011627;stroke-width:0.870908;stroke-linecap:round;stroke-linejoin:round;stroke-dasharray:none;stroke-opacity:1" id="rect21" width="80.993126" height="40.978157" x="106.54993" y="158.97597" ry="1.6766487"/><rect style="fill:#011627;fill-opacity:1;stroke:#011627;stroke-width:0.714464;stroke-linecap:round;stroke-linejoin:round;stroke-dasharray:none;stroke-opacity:1" id="rect22" width="45.279572" height="18.693323" x="168.56572" y="131.09183" ry="2.0997772" transform="matrix(0.93557323,0.35313276,-0.3442821,0.93886626,0,0)"/><rect style="fill:#011627;fill-opacity:1;stroke:#011627;stroke-width:0.63933;stroke-linecap:round;stroke-linejoin:round;stroke-dasharray:none;stroke-opacity:1" id="rect23" width="44.681225" height="15.16885" x="52.31921" y="239.86139" ry="1.7038813" transform="matrix(0.92871102,-0.37080433,0.38418032,0.92325809,0,0)"/><path style="fill:#011627;fill-opacity:1;stroke:#011627;stroke-width:0.600001;stroke-linecap:round;stroke-linejoin:round;stroke-dasharray:none;stroke-opacity:1" d="m 124.90322,139.89516 c -17.74193,19.42742 -17.83064,19.25 -17.83064,19.25 v 0" id="path23"/><path style="fill:#011627;fill-opacity:1;stroke:#011627;stroke-width:0.600001;stroke-linecap:round;stroke-linejoin:round;stroke-dasharray:none;stroke-opacity:1" d="m 168.99193,140.25 c 18.09678,18.98387 18.09678,18.98387 18.09678,18.98387" id="path24"/><path style="fill:#011627;fill-opacity:1;stroke:#011627;stroke-width:0.612881;stroke-linecap:round;stroke-linejoin:round;stroke-dasharray:none;stroke-opacity:1" d="m 107.39543,159.20967 c 3.78014,-3.3502 8.58543,-9.74459 12.85611,-9.66082 5.56273,-0.12456 8.84439,7.88793 15.46089,9.21045" id="path26" sodipodi:nodetypes="ccc"/><path style="fill:#011627;fill-opacity:1;stroke:#011627;stroke-width:0.600001;stroke-linecap:round;stroke-linejoin:round;stroke-dasharray:none;stroke-opacity:1" d="m 131.16826,158.5063 c 4.75024,-4.33629 12.47394,-8.49823 17.65652,-7.9636 1.76263,0.18183 9.40397,0.45015 17.77871,8.94125" id="path27" sodipodi:nodetypes="csc"/><path style="fill:#011627;fill-opacity:1;stroke:#011627;stroke-width:0.612881;stroke-linecap:round;stroke-linejoin:round;stroke-dasharray:none;stroke-opacity:1" d="m 186.70966,159.33512 c -3.78014,-3.3502 -8.58543,-9.74459 -12.85611,-9.66082 -5.56273,-0.12456 -8.84439,7.88793 -15.46089,9.21045" id="path30" sodipodi:nodetypes="ccc"/><path id="path31" style="fill:#ffffff;stroke:#011627;stroke-width:0.600001;stroke-linecap:round;stroke-linejoin:round" d="m 136.2599,165.13155 c 3.47588,0.43507 0.13515,3.0107 -9.18764,4.42693 -7.15661,1.08716 -16.46821,-3.26301 -17.2051,-6.68762 -0.73689,-3.42462 1.45068,-10.61115 9.09983,-5.6784 6.08345,3.92307 12.63032,7.35546 17.29291,7.93909 z" sodipodi:nodetypes="sssss"/><ellipse style="fill:#ffffff;fill-opacity:1;stroke:#011627;stroke-width:0.492148;stroke-linecap:round;stroke-linejoin:round;stroke-dasharray:none;stroke-opacity:1" id="path32" cx="142.56575" cy="179.30243" rx="2.2187803" ry="3.5889122"/><ellipse style="fill:#ffffff;fill-opacity:1;stroke:#011627;stroke-width:0.508434;stroke-linecap:round;stroke-linejoin:round;stroke-dasharray:none;stroke-opacity:1" id="ellipse32" cx="155.83495" cy="179.29045" rx="2.2825503" ry="3.7233653"/><path style="fill:#ffffff;fill-opacity:1;stroke:#011627;stroke-width:1.27884;stroke-linecap:round;stroke-linejoin:round;stroke-dasharray:none;stroke-opacity:1" d="m 142.25838,185.46587 13.82008,0.12642 c -0.0235,14.48431 -13.49087,14.83894 -13.86552,-7.2e-4" id="path33" sodipodi:nodetypes="ccc"/></g></svg>