<?xml version="1.0" encoding="UTF-8" standalone="no"?>
<!-- Created with Inkscape (http://www.inkscape.org/) -->

<svg
   width="134.70844mm"
   height="167.8123mm"
   viewBox="0 0 134.70844 167.8123"
   version="1.1"
   id="svg1"
   xml:space="preserve"
   xmlns:inkscape="http://www.inkscape.org/namespaces/inkscape"
   xmlns:sodipodi="http://sodipodi.sourceforge.net/DTD/sodipodi-0.dtd"
   xmlns="http://www.w3.org/2000/svg"
   xmlns:svg="http://www.w3.org/2000/svg"><sodipodi:namedview
     id="namedview1"
     pagecolor="#ffffff"
     bordercolor="#000000"
     borderopacity="0.25"
     inkscape:showpageshadow="2"
     inkscape:pageopacity="0.0"
     inkscape:pagecheckerboard="0"
     inkscape:deskcolor="#d1d1d1"
     inkscape:document-units="mm" /><defs
     id="defs1"><style
       type="text/css"
       id="style1">
   
    .fil0 {fill:black}
   
  </style><clipPath
       clipPathUnits="userSpaceOnUse"
       id="clipPath7"><rect
         style="fill:#ffffff;stroke:#011627;stroke-width:2.26772;stroke-linecap:round;stroke-linejoin:round"
         id="rect8"
         width="432.43253"
         height="350.87726"
         x="-25.963114"
         y="-23.089184"
         ry="0.67056131" /></clipPath></defs><g
     inkscape:label="Layer 1"
     inkscape:groupmode="layer"
     id="layer1"
     transform="translate(-41.523778,-39.628486)"><g
       style="clip-rule:evenodd;fill-rule:evenodd;image-rendering:optimizeQuality;shape-rendering:geometricPrecision;text-rendering:geometricPrecision"
       id="g2"
       transform="matrix(0.3818118,0,0,0.50652827,51.436802,41.406845)"
       clip-path="url(#clipPath7)"><g
         id="g1"><path
           class="fil0"
           d="m 84.359995,-3.2626545 c -27.23,0.5 -48.2,3.14999995 -61.5,7.82 -21.3600003,7.4999995 -39.44,29.5299995 -44.39,54.1099995 -1.13,5.52 -2.51,17.86 -3.22,28.58 -0.28,4.56 -0.77,11.49 -1.06,15.380005 -1.91,25.32 -3,43.5 -3,49.87 0,13.47 0.99,34.06 1.98,40.74 1.41,9.65 4.17,15.77 9.58,21.15 2.34,2.3 3.11,3.32 3.86,5.13 3.9899997,9.83 9.1199997,15.45 18.3499997,20.05 4.53,2.3 7.6400003,3.25 14.7900003,4.56 12.13,2.19 15.49,2.41 42.79,2.34 18.6,-0.04 24.37,0.07 24.47,0.38 0.07,0.25 0.64,2.16 1.28,4.32 2.93,10.08 6.57,18.25 11.56,25.82 6.369995,9.72 9.759995,13.15 21.819995,21.92 3.11,2.27 7.43,5.49 9.55,7.11 7,5.45 22.1,13.62 29.81,16.2 4.78,1.56 6.97,1.66 8.35,0.39 1.45,-1.34 1.2,-2.37 -1.13,-5.06 -3.15,-3.61 -5.24,-6.72 -7.11,-10.75 -3.47,-7.32 -4.35,-10.04 -5.34,-16.02 -1.87,-11.53 -2.3,-23.87 -1.06,-31.16 0.71,-4.03 2.26,-9.3 3.54,-11.81 l 0.63,-1.27 8.28,-0.43 c 4.52,-0.25 10.96,-0.42 14.25,-0.42 5.55,0 19.73,-0.57 36.07,-1.42 9.34,-0.49 20.73,-1.66 26.18,-2.68 2.54,-0.46 8.48,-1.56 13.26,-2.44 15.03,-2.8 27.58,-6.26 34.48,-9.52 6.4,-3.04 10.22,-5.76 17.12,-12.34 8.48,-8.03 10.93,-12.52 13.26,-24.12 0.99,-4.92 2.44,-19.88 3.04,-31.3 0.21,-3.78 0.64,-10.15 0.92,-14.15 1.2,-16.69 1.45,-40.74 0.5,-50.570005 -0.18,-2.05 -0.61,-6.47 -0.89,-9.87 -0.64,-7.04 -2.76,-18.85 -4.81,-26.88 -1.7,-6.75 -5.13,-15.42 -7.67,-19.45 -4.95,-7.92 -8.56,-11 -20.76,-17.82 -3.12,-1.73 -6.19,-3.57 -6.83,-4.07 -5.45,-4.35 -13.19,-8.42 -20.58,-10.8599995 -8.42,-2.72 -14.5,-3.82 -30.06,-5.3 -5.17,-0.5 -12.17,-1.24 -15.56,-1.63 -31.8,-3.64 -40.89,-4.14 -87.18,-4.53 -18.29,-0.17 -33.489995,-0.28 -33.779995,-0.24 -0.28,0 -6.5,0.14 -13.79,0.24 z m 65.599995,9.16 c 28.79,0.57 38.38,1.14 61.54,3.72 7.78,0.8499995 17.72,1.9099995 22.11,2.2999995 18.39,1.69 26.03,3.43 35.68,7.99 10.79,5.13 16.02,10.79 19.45,21.15 1.27,3.82 4.67,17.61 7.46,30.1 2.23,10 5.27,29.530005 6.58,41.900005 0.74,7.25 1.1,34.91 0.53,43.33 -0.46,7.14 -1.06,11.1 -2.69,17.5 -3.46,13.83 -9.08,24.16 -16.09,29.54 -7.78,5.97 -18.07,9.97 -33.63,13.05 -13.26,2.61 -25.78,3.71 -53.19,4.63 -24.72,0.81 -34.27,1.41 -45.8,2.86 -9.76,1.21 -14.22,2.76 -16.45,5.7 -1.91,2.51 -3.67,7.88 -3.89,11.74 -0.03,1.09 -0.42,3.25 -0.81,4.81 -1.41,5.59 -1.66,8.13 -1.63,17.86 0.04,10.68 0.5,15.38 2.44,24.61 0.71,3.29 1.38,6.44 1.49,7.04 0.21,0.99 0.21,1.03 -0.5,0.53 -0.39,-0.28 -2.93,-2.01 -5.62,-3.85 -11.56,-7.85 -18.53,-15.81 -24.58,-28.15 -2.369995,-4.81 -5.159995,-12.77 -8.269995,-23.52 -3.33,-11.53 -7.89,-17.05 -15.32,-18.57 -3.39,-0.71 -9.69,-1.17 -18.64,-1.42 -12.55,-0.31 -26.52,-0.88 -31.65,-1.23 -14.11,-1.03 -27.87000035,-3.93 -34.9800003,-7.36 -1.94,-0.92 -3.36,-1.94 -5.1599997,-3.75 -6.68,-6.72 -8.1,-15.21 -8.13,-49.02 0,-16.51 0.03,-17.04 1.34,-32.18 1.84,-21.47 2.65,-31.440005 3.25,-40.670005 1.21,-18.14 2.51,-27.62 4.78,-34.45 1.7299997,-5.16 5.9399997,-13.44 9.1199997,-17.86 6.33,-8.91 16.3400003,-17.11 25.0100003,-20.58 10.43,-4.1699995 32.22,-7.2499995 55.17,-7.8499995 10.01,-0.28 55.949995,-0.21 71.079995,0.1 z m 147.45,26.6699995 c 2.68,2.05 7.25,6.61 7.92,7.89 0.28,0.49 -1.2,-0.36 -4.32,-2.41 -4.56,-3.07 -4.74,-3.25 -5.62,-5.27 -0.49,-1.16 -0.81,-2.12 -0.67,-2.12 0.1,0 1.31,0.85 2.69,1.91 z m 4.24,9.41 c 1.66,0.99 3.82,2.12 4.77,2.54 1.88,0.75 2.02,0.99 3.61,5.52 l 0.64,1.84 -4.85,-3.68 c -6.43,-4.91 -7.03,-5.48 -7.32,-6.86 -0.14,-0.6 -0.14,-1.13 -0.07,-1.13 0.11,0 1.56,0.81 3.22,1.77 z m 7.32,11.28 2.69,1.45 1.1,4.14 c 0.63,2.26 1.06,4.17 1.02,4.21 -0.03,0.03 -2.37,-1.77 -5.2,-4 -2.83,-2.23 -5.55,-4.28 -6.08,-4.56 -0.53,-0.25 -1.03,-0.78 -1.13,-1.1 -0.21,-0.78 -1.28,-5.37 -1.28,-5.62 0,-0.07 1.38,0.78 3.12,1.91 1.69,1.16 4.28,2.76 5.76,3.57 z m -1.8,8.63 c 2.05,1.38 4.56,2.86 5.59,3.29 0.99,0.46 1.83,0.95 1.83,1.09 0,0.18 0.39,2.52 0.85,5.24 0.46,2.72 0.82,4.99 0.78,4.99 0,0.03 -2.79,-2.62 -6.12,-5.88 l -6.08,-5.9 -0.67,-2.87 c -0.43,-1.84 -0.53,-2.79 -0.29,-2.65 0.22,0.11 2.06,1.35 4.11,2.69 z m 2.51,13.3 c 1.41,1.23 3.54,2.9 4.7,3.64 1.2,0.78 2.27,1.56 2.37,1.8 0.14,0.25 0.36,1.95 0.5,3.79 l 0.28,3.36 -2.26,-2.12 c -1.24,-1.17 -3.75,-3.68 -5.59,-5.56 -2.94,-3 -3.33,-3.6 -3.61,-5.13 -0.18,-0.91 -0.39,-2.08 -0.49,-2.54 -0.22,-0.82 -0.22,-0.82 0.63,-0.18 0.5,0.39 2.05,1.7 3.47,2.94 z m 2.09,11.28 c 1.83,1.45 3.92,2.97 4.66,3.36 1.06,0.64 1.35,0.99 1.35,1.84 0,0.56 0.1,1.94 0.24,3 l 0.22,1.95 -4.92,-4.78 c -2.69,-2.61 -5.02,-4.91 -5.13,-5.12 -0.14,-0.18 -0.32,-1.03 -0.46,-1.88 -0.28,-1.8 -0.53,-1.91 4.04,1.63 z m 0.49,8.7 c 1.63,1.24 3.68,2.69 4.6,3.22 l 1.62,0.95 v 3.150005 c 0,2.69 -0.07,3.15 -0.49,2.9 -0.28,-0.18 -2.26,-1.84 -4.39,-3.71 l -3.89,-3.430005 -0.21,-2.06 c -0.14,-1.13 -0.32,-2.33 -0.42,-2.68 -0.11,-0.32 -0.11,-0.6 0,-0.6 0.14,0 1.55,1.02 3.18,2.26 z m 3.29,12.090005 c 1.17,0.82 2.33,1.52 2.55,1.6 0.28,0.1 0.38,1.27 0.31,3.6 l -0.1,3.43 -3.43,-2.65 c -1.88,-1.45 -3.5,-2.76 -3.57,-2.9 -0.11,-0.14 -0.29,-1.7 -0.43,-3.46 l -0.28,-3.15 1.38,1.02 c 0.78,0.6 2.37,1.74 3.57,2.51 z m 0.71,9.27 2.22,1.31 v 3.96 c 0,2.19 -0.07,4 -0.17,4 -0.11,0 -1.49,-1.03 -3.11,-2.3 l -2.98,-2.27 -0.24,-2.19 c -0.11,-1.2 -0.21,-2.9 -0.21,-3.75 v -1.59 l 1.16,0.74 c 0.6,0.43 2.12,1.35 3.33,2.09 z m -0.89,10.11 2.94,1.91 -0.11,3.44 c -0.14,3.92 0.07,3.85 -3.46,1.48 l -2.27,-1.48 v -2.83 c 0,-1.56 -0.1,-3.19 -0.21,-3.65 -0.14,-0.42 -0.14,-0.77 -0.04,-0.77 0.15,0 1.56,0.84 3.15,1.9 z m 0.07,10.83 2.34,1.06 -0.04,2.4 c -0.03,1.31 -0.14,3.4 -0.28,4.67 l -0.21,2.3 -1.21,-2.12 c -0.67,-1.17 -1.76,-2.9 -2.4,-3.89 -0.96,-1.45 -1.17,-2.09 -1.17,-3.61 0,-1.03 0.14,-1.87 0.32,-1.87 0.14,0 1.34,0.49 2.65,1.06 z m 0.14,13.72 c 1.49,1.84 1.53,1.98 1.31,3.64 l -0.24,1.73 -2.09,-2.79 c -1.95,-2.62 -2.09,-2.93 -2.05,-4.7 v -1.88 l 0.78,1.03 c 0.42,0.56 1.45,1.91 2.29,2.97 z m 1.1,10.15 c -0.07,3.64 -0.28,3.68 -2.58,0.46 -1.17,-1.59 -2.12,-3.15 -2.12,-3.43 0,-0.32 0.03,-1.1 0.07,-1.73 l 0.07,-1.21 2.3,2.09 c 2.23,2.02 2.26,2.09 2.26,3.82 z m -0.6,9.19 c -0.14,2.8 -0.5,3.47 -1.13,2.27 -0.25,-0.46 -1.24,-1.84 -2.16,-3.04 -1.77,-2.23 -2.05,-3.29 -1.52,-5.34 0.21,-0.75 0.39,-0.68 2.58,1.41 l 2.34,2.23 z m -1.56,4.78 c 1.1,0.81 1.14,0.99 0.89,2.19 l -0.29,1.31 -2.29,-3.22 c -3.12,-4.38 -3.22,-4.6 -1.21,-2.76 0.96,0.89 2.27,1.98 2.9,2.48 z m -0.7,5.59 1.2,1.13 -0.25,2.65 -0.25,2.69 -3.32,-3.47 c -1.8,-1.91 -3.29,-3.68 -3.33,-3.92 0,-0.29 0.25,-1.38 0.57,-2.48 l 0.6,-1.98 1.81,2.09 c 0.99,1.16 2.33,2.65 2.97,3.29 z m -4.46,4.88 c 1.24,1.09 2.83,2.4 3.54,2.93 l 1.34,0.92 -0.21,2.05 c -0.53,4.78 -0.25,4.74 -4.03,0.22 -1.84,-2.23 -3.58,-4.32 -3.86,-4.67 -0.39,-0.5 -0.42,-0.89 -0.07,-2.02 0.21,-0.78 0.57,-1.41 0.74,-1.41 0.18,0 1.35,0.88 2.55,1.98 z m 1.66,11.03 c 1.98,1.38 1.98,1.35 0.64,4.42 l -0.78,1.7 -3.54,-4.31 c -4.95,-6.05 -4.63,-5.49 -3.92,-6.94 l 0.6,-1.27 2.58,2.58 c 1.42,1.42 3.4,3.11 4.42,3.82 z m -5.8,4.28 c 3.75,3.64 4.1,4.1 3.72,4.78 -0.5,0.91 -2.13,2.82 -2.27,2.65 -0.03,-0.07 -0.46,-0.71 -0.95,-1.38 -0.46,-0.67 -2.09,-2.72 -3.61,-4.56 l -2.79,-3.29 0.63,-1.21 c 0.36,-0.67 0.78,-1.16 0.92,-1.13 0.11,0.07 2.09,1.91 4.35,4.14 z m -3.99,5.24 c 2.12,2.08 3.82,3.96 3.82,4.17 0,0.21 -0.53,0.92 -1.17,1.52 l -1.2,1.17 -1.35,-1.7 c -0.74,-0.92 -2.4,-2.87 -3.64,-4.25 -1.42,-1.62 -2.16,-2.72 -1.98,-3 0.39,-0.71 1.27,-1.7 1.52,-1.7 0.11,0 1.91,1.7 4,3.79 z m -5.24,3.21 c 1.38,1.31 3.15,2.9 3.93,3.54 l 1.41,1.13 -1.09,1.1 -1.1,1.06 -3.43,-4.24 c -3.15,-3.9 -3.71,-4.99 -2.62,-4.99 0.21,0 1.52,1.09 2.9,2.4 z m -2.26,4.42 3.68,3.82 -1.06,0.85 c -0.57,0.5 -1.21,0.85 -1.42,0.78 -0.21,-0.03 -1.94,-1.84 -3.82,-3.96 l -3.39,-3.89 0.99,-0.78 c 0.53,-0.46 1.06,-0.78 1.16,-0.71 0.11,0.04 1.84,1.81 3.86,3.89 z m -5.13,3.65 c 3.15,2.97 3.78,3.75 3.36,4.03 -1.52,1.02 -1.98,0.85 -6.37,-2.65 -2.37,-1.88 -4.2,-3.5 -4.1,-3.61 0.57,-0.57 2.23,-1.49 2.69,-1.49 0.28,0 2.3,1.67 4.42,3.72 z m -9.09,2.08 c 1.42,1.06 3.54,2.44 4.67,3.08 1.17,0.64 2.12,1.27 2.12,1.42 0,0.21 -3.64,1.69 -4.21,1.69 -0.14,0 -0.42,-0.35 -0.63,-0.81 -0.22,-0.43 -1.6,-2.16 -3.08,-3.86 -1.49,-1.69 -2.69,-3.18 -2.69,-3.28 0,-0.64 1.59,0.07 3.82,1.76 z m -3.68,3.5 3.61,3.72 -2.09,0.56 c -1.13,0.32 -2.12,0.53 -2.19,0.46 -0.64,-0.63 -5.48,-7.18 -5.48,-7.39 0,-0.25 1.56,-0.92 2.26,-0.99 0.18,-0.03 1.91,1.63 3.89,3.64 z m -279.3199953,-1.16 c 0.42,0.14 1.59,1.73 2.71999995,3.64 1.21,2.09 1.74,3.25 1.35,3.08 -0.96,-0.53 -5.23999995,-5.2 -5.86999995,-6.44 -0.57,-1.1 -0.57,-1.1 0.24,-0.85 0.46,0.14 1.14,0.39 1.56,0.57 z m 270.2299953,0.56 c 0.39,0.57 1.81,2.2 3.12,3.65 2.61,2.9 2.61,2.68 -0.43,3.29 -1.06,0.21 -1.24,0.07 -3.96,-3.15 -1.59,-1.84 -2.86,-3.5 -2.86,-3.64 0,-0.29 1.87,-1 2.86,-1.07 0.28,-0.03 0.85,0.39 1.27,0.92 z m -263.6499953,1.17 c 1.02,0.28 1.38,0.64 1.7,1.56 0.21,0.63 1.3,2.76 2.47,4.74 1.17,1.98 2.12,3.67 2.12,3.78 0,0.11 -0.92,-0.28 -2.05,-0.85 -2.05,-1.02 -2.08,-1.06 -4.07,-5.16 -1.09,-2.27 -2.01,-4.18 -2.01,-4.28 0,-0.21 0.42,-0.18 1.84,0.21 z m 259.1299953,3.33 c 3.11,3.11 3.29,3.36 2.47,3.53 -3,0.71 -4.06,0.85 -4.24,0.64 -0.11,-0.14 -1.2,-1.45 -2.48,-2.9 -3.53,-4.1 -3.39,-3.82 -2.01,-4.21 2.47,-0.71 2.76,-0.57 6.26,2.94 z m -251.709995,-1.49 c 0.29,0.25 1.07,1.34 1.7,2.4 0.64,1.07 2.27,3.44 3.65,5.24 1.34,1.8 2.4,3.32 2.33,3.39 -0.21,0.22 -5.38,-1.16 -5.66,-1.48 -0.14,-0.14 -1.2,-2.44 -2.37,-5.13 l -2.1200003,-4.84 h 0.95 c 0.53,0 1.2100003,0.21 1.5200003,0.42 z m 246.759995,6.44 c -0.08,0.1 -1.21,0.28 -2.44,0.39 l -2.3,0.24 -2.76,-3.32 -2.73,-3.29 1.84,-0.39 1.88,-0.39 3.36,3.29 c 1.84,1.8 3.25,3.36 3.15,3.47 z m -238.049995,-4.81 c 0.95,1.2 6.43,10.43 6.29,10.57 -0.14,0.14 -4.14,-0.49 -4.28,-0.67 -0.18,-0.21 -4.03,-6.97 -5.09,-8.88 l -1.13,-2.05 1.87,0.25 c 1.1,0.1 2.05,0.46 2.34,0.78 z m 226.229995,2.79 c 1.63,1.73 2.83,3.22 2.73,3.36 -0.14,0.11 -1.14,0.32 -2.23,0.46 l -1.95,0.25 -2.54,-3.36 c -2.69,-3.61 -2.69,-3.64 -0.14,-3.75 1.02,-0.04 1.52,0.35 4.13,3.04 z m -218.909995,0.64 c 0.99,1.73 2.47,4.17 3.32,5.41 0.81,1.24 1.41,2.33 1.34,2.44 -0.38,0.35 -3.07,-0.32 -3.07,-0.78 0,-0.25 -1.13,-2.69 -2.48,-5.48 -2.26,-4.53 -2.4,-4.99 -1.7,-4.88 0.57,0.07 1.28,0.99 2.59,3.29 z m 4.91,-2.05 c 0.6,1.06 5.98,8.06 7.25,9.44 0.82,0.88 1.03,1.31 0.64,1.13 -0.36,-0.11 -1.59,-0.21 -2.76,-0.21 h -2.09 l -2.08,-4.18 c -1.17,-2.26 -2.55,-4.84 -3.08,-5.69 l -0.96,-1.56 1.38,0.29 c 0.78,0.1 1.52,0.49 1.7,0.78 z m 206.049995,2.4 c 1.62,1.88 2.83,3.47 2.72,3.57 -0.11,0.11 -0.81,0.29 -1.56,0.39 l -1.38,0.18 -2.54,-3.4 c -1.42,-1.84 -2.55,-3.46 -2.55,-3.53 0,-0.14 0.96,-0.39 2.02,-0.53 0.21,0 1.69,1.48 3.29,3.32 z m -199.649995,-2.65 c 0.92,0 1.21,0.25 2.09,1.87 0.6,0.99 2.05,3.4 3.29,5.31 1.24,1.91 2.23,3.53 2.23,3.61 0,0.1 -1.1,0.17 -2.44,0.17 -2.23,0 -2.44,-0.07 -2.27,-0.67 0.11,-0.46 -0.81,-2.33 -2.68,-5.45 -1.6,-2.58 -2.87,-4.84 -2.87,-5.02 0,-0.14 0.35,-0.18 0.81,-0.03 0.43,0.1 1.28,0.21 1.84,0.21 z m 7.18,0.21 c 0.53,0.14 1.13,0.88 1.74,2.05 0.49,0.99 1.76,3.26 2.79,5.06 1.06,1.77 1.91,3.32 1.91,3.43 0,0.11 -0.71,0.21 -1.56,0.21 -1.34,0 -1.62,-0.14 -1.84,-0.81 -0.14,-0.43 -1.34,-2.8 -2.65,-5.27 -1.34,-2.44 -2.44,-4.56 -2.44,-4.67 0,-0.28 0.99,-0.25 2.05,0 z m 185.679995,3.22 c 3.07,3.64 3.11,3.89 0.74,3.96 -0.78,0.04 -1.38,-0.53 -3.47,-3.32 -1.41,-1.88 -2.44,-3.54 -2.33,-3.72 0.1,-0.21 0.67,-0.35 1.2,-0.35 0.81,0 1.49,0.6 3.86,3.43 z m -179.029995,-2.8 c 0.25,0.15 1.73,2.09 3.33,4.32 1.59,2.23 3.21,4.42 3.6,4.81 0.68,0.74 0.68,0.74 -0.14,0.99 -0.46,0.11 -1.63,0.21 -2.62,0.21 h -1.8 l -2.05,-4.7 c -1.13,-2.55 -2.19,-4.85 -2.33,-5.06 -0.18,-0.21 -0.22,-0.49 -0.08,-0.6 0.32,-0.32 1.6,-0.32 2.09,0.04 z m 173.259995,4 2.65,3.11 -1.87,0.22 c -1.03,0.14 -2.23,0.17 -2.65,0.1 -0.46,-0.07 -1.74,-1.45 -3.4,-3.64 l -2.65,-3.54 2.01,-0.17 c 2.41,-0.22 2.34,-0.25 5.91,3.92 z m -163.359995,-0.49 c 1.31,1.91 2.83,4.03 3.4,4.74 1.17,1.55 0.95,1.73 -2.12,1.73 l -2.02,-0.04 -1.13,-2.37 c -0.6,-1.31 -1.77,-3.53 -2.58,-4.95 l -1.49,-2.54 h 1.77 1.8 z m 6.62,0.53 c 3.92,6.01 3.82,5.58 1.52,5.58 h -1.98 l -0.92,-1.87 c -0.53,-0.99 -1.63,-3.04 -2.48,-4.53 -0.85,-1.48 -1.55,-2.79 -1.55,-2.9 0,-0.14 0.63,-0.24 1.38,-0.24 1.41,0 1.41,0.03 4.03,3.96 z m 5.13,-2.9 c 0.07,0.21 1.23,2.19 2.58,4.42 1.34,2.23 2.44,4.14 2.44,4.24 0,0.11 -0.92,0.18 -2.02,0.11 l -2.05,-0.11 -2.55,-4.74 -2.54,-4.74 2.01,0.22 c 1.1,0.1 2.05,0.38 2.13,0.6 z m 140.119995,-0.43 c 0,0.14 1.34,1.77 2.97,3.61 l 3,3.36 -2.37,0.28 c -2.05,0.29 -2.4,0.25 -2.72,-0.28 -0.18,-0.35 -1.41,-2.02 -2.72,-3.75 -1.35,-1.7 -2.41,-3.22 -2.41,-3.32 0,-0.11 0.96,-0.18 2.12,-0.18 1.17,0 2.13,0.14 2.13,0.28 z m -14.11,2.8 c 1.2,1.52 2.75,3.36 3.46,4.06 1.2,1.31 1.24,1.35 0.39,1.35 -0.49,0 -1.7,0.1 -2.69,0.21 l -1.8,0.21 -2.69,-3.99 c -2.93,-4.35 -2.97,-4.57 -0.35,-4.57 1.41,0 1.55,0.11 3.68,2.73 z m 7.81,1.06 3.43,3.82 -2.19,0.17 c -1.2,0.11 -2.26,0.07 -2.3,-0.07 -0.07,-0.17 -1.13,-1.77 -2.3,-3.57 -1.2,-1.8 -2.33,-3.47 -2.47,-3.71 -0.22,-0.32 0.07,-0.43 1.06,-0.43 1.31,0 1.55,0.22 4.77,3.79 z m -14.71,0.46 c 1.73,2.15 3.22,4.06 3.25,4.24 0.07,0.21 -0.78,0.35 -2.12,0.35 l -2.23,-0.03 -2.19,-2.55 c -1.2,-1.38 -2.83,-3.29 -3.64,-4.24 l -1.49,-1.66 h 2.65 2.66 z m -112.009995,-2.16 c 1.17,0.92 3.19,4.1 3.89,6.12 0.36,0.99 0.32,0.99 -1.13,0.99 h -1.48 l -2.23,-4.28 c -2.23,-4.28 -2.23,-4.28 -1.24,-4.07 0.53,0.14 1.52,0.71 2.19,1.24 z m 103.559995,2.58 c 2.19,2.19 3.99,4.1 3.99,4.25 0,0.17 -1.02,0.28 -2.3,0.28 h -2.26 l -1.31,-2.05 c -0.71,-1.1 -1.98,-2.94 -2.83,-4.03 -0.85,-1.1 -1.55,-2.09 -1.55,-2.2 0,-0.1 0.53,-0.21 1.13,-0.21 0.99,0 1.7,0.57 5.13,3.96 z m -10.33,-2.86 c 0.14,0.42 1.52,2.22 3.04,4.06 l 2.83,3.33 h -1.7 c -1.66,0 -1.77,-0.07 -3.53,-2.23 -1.03,-1.2 -2.59,-3.04 -3.5,-4.07 l -1.67,-1.84 h 2.16 c 1.87,0 2.19,0.11 2.37,0.75 z m -4.63,3.67 4.17,4.07 h -2.05 -2.09 l -3.07,-3.85 c -1.74,-2.09 -3.12,-3.93 -3.12,-4.07 0,-0.11 0.43,-0.21 0.99,-0.21 0.75,0 1.88,0.92 5.17,4.06 z m -6.76,0.18 3.43,3.86 -1.2,0.21 c -0.64,0.14 -1.49,0.18 -1.87,0.1 -0.78,-0.14 -7.61,-7.32 -7.33,-7.78 0.11,-0.14 0.92,-0.28 1.84,-0.24 1.67,0 1.67,0 5.13,3.85 z m -8.98,-0.95 c 1.27,1.2 3.25,3 4.38,3.96 l 2.02,1.77 -2.37,0.03 c -2.37,0.04 -2.4,0.04 -3.32,-1.24 -0.53,-0.7 -1.84,-2.44 -2.94,-3.82 -1.1,-1.41 -1.98,-2.65 -1.98,-2.75 0,-0.11 0.42,-0.18 0.95,-0.18 0.68,0 1.6,0.64 3.26,2.23 z m -3.47,3.96 2.73,2.83 -0.96,1.91 -0.99,1.87 -0.78,-0.99 c -0.42,-0.56 -2.79,-3.11 -5.2,-5.69 -2.68,-2.87 -4.24,-4.74 -3.99,-4.92 0.21,-0.11 1.2,-0.35 2.23,-0.49 1.8,-0.25 1.8,-0.25 3.04,1.2 0.67,0.81 2.44,2.72 3.92,4.28 z m -0.99,8.24 0.99,0.71 -0.81,2.68 c -0.42,1.49 -0.88,2.69 -0.99,2.69 -0.11,0 -0.39,-0.35 -0.67,-0.81 -0.29,-0.43 -2.37,-3.36 -4.67,-6.47 -3.47,-4.71 -4.21,-5.95 -4.21,-6.94 0,-0.67 0.07,-1.3 0.18,-1.41 0.1,-0.11 2.23,1.84 4.7,4.31 2.48,2.48 4.95,4.81 5.48,5.24 z m -6.54,2.97 c 1.41,1.7 3.22,3.61 3.96,4.28 l 1.42,1.2 -0.5,2.55 c -0.28,1.41 -0.57,2.61 -0.64,2.68 -0.07,0.08 -2.22,-2.72 -4.77,-6.22 l -4.7,-6.37 0.42,-1.83 0.39,-1.84 0.92,1.23 c 0.49,0.68 2.09,2.62 3.5,4.32 z m -5.23,2.69 c 0,0.85 7.95,9.62 8.73,9.62 0.35,0 0.46,0.92 0.43,3.78 v 3.82 l -0.78,-1.03 c -4.46,-6.01 -6.62,-8.8 -7.92,-10.36 l -1.56,-1.84 0.25,-2.12 c 0.1,-1.2 0.39,-2.16 0.53,-2.16 0.17,0 0.32,0.15 0.32,0.29 z m 4.88,15.2 c 2.08,2.09 2.79,2.59 3.46,2.44 0.85,-0.14 0.85,-0.1 0.85,2.73 0,1.55 0.11,3.75 0.25,4.81 l 0.21,1.94 -1.34,-1.77 c -1.52,-1.98 -4.28,-5.23 -7.32,-8.62 l -2.06,-2.27 v -2.86 -2.87 l 1.67,1.95 c 0.88,1.06 2.83,3.11 4.28,4.52 z m 3.82,12.67 c 0.88,0.21 0.99,0.53 1.38,4.52 l 0.17,2.09 -3.08,-2.87 c -1.73,-1.55 -4.03,-3.78 -5.16,-4.95 -1.91,-1.94 -2.09,-2.23 -2.37,-4.35 -0.17,-1.23 -0.35,-2.54 -0.35,-2.9 0,-0.42 1.52,0.92 4.28,3.79 2.37,2.44 4.67,4.56 5.13,4.67 z m -3.93,4.7 c 1.95,1.56 4.03,3.04 4.63,3.25 1.06,0.39 1.1,0.53 1.49,3.43 0.21,1.67 0.35,3.08 0.28,3.15 -0.07,0.07 -2.26,-1.94 -4.88,-4.49 -4.07,-3.89 -4.84,-4.81 -5.02,-5.91 -0.14,-0.74 -0.35,-1.62 -0.46,-2.01 -0.25,-0.82 -0.28,-0.85 3.96,2.58 z m 5.59,12.38 c 1.09,0.81 2.01,1.66 2.01,1.91 0,0.24 0.46,1.34 1.03,2.44 0.85,1.66 0.92,1.98 0.42,1.69 -0.77,-0.38 -8.87,-6.25 -9.51,-6.86 -0.39,-0.39 -1.41,-3.85 -1.49,-4.91 0,-0.18 1.24,0.71 2.76,1.94 1.49,1.28 3.65,2.94 4.78,3.79 z m -2.16,5.09 c 1.63,1.06 4.14,2.58 5.66,3.4 2.26,1.23 3.01,1.91 4.6,4.03 1.02,1.38 1.98,2.72 2.15,2.97 0.32,0.53 -3.99,-1.45 -8.8,-4.03 -2.69,-1.42 -3.86,-2.23 -4.56,-3.29 -0.53,-0.78 -1.1,-1.42 -1.28,-1.42 -0.14,0 -0.46,-0.6 -0.63,-1.34 -0.43,-1.42 -0.5,-2.19 -0.22,-2.19 0.07,0 1.49,0.84 3.08,1.87 z"
           id="path1" /></g><text
         x="0"
         y="341.98999"
         fill="#000000"
         font-size="5px"
         font-weight="bold"
         font-family="'Helvetica Neue', Helvetica, Arial-Unicode, Arial, Sans-serif"
         id="text1">Created by Przemyslawk</text><text
         x="0"
         y="346.98999"
         fill="#000000"
         font-size="5px"
         font-weight="bold"
         font-family="'Helvetica Neue', Helvetica, Arial-Unicode, Arial, Sans-serif"
         id="text2">from the Noun Project</text></g></g></svg>
